<?xml version="1.0" encoding="UTF-8"?>
<svg width="20px" height="26px" viewBox="0 0 20 26" version="1.1" xmlns="http://www.w3.org/2000/svg" xmlns:xlink="http://www.w3.org/1999/xlink">
    <!-- Generator: Sketch 41.2 (35397) - http://www.bohemiancoding.com/sketch -->
    <title>icon_three</title>
    <desc>Created with Sketch.</desc>
    <defs></defs>
    <g id="Symbols" stroke="none" stroke-width="1" fill="none" fill-rule="evenodd">
        <g id="icon_three">
            <g>
                <polygon id="Mask" fill="#ADAB95" points="3 15 17 15 17 26 10 22 3 26"></polygon>
                <circle id="Oval-3" fill="#E6E2CF" cx="10" cy="10" r="10"></circle>
                <circle id="Oval-3" fill="#B3B1A1" cx="10" cy="10" r="8"></circle>
                <path d="M12.4960938,9.46289062 C13.4349005,9.98698179 13.9042969,10.8255151 13.9042969,11.9785156 C13.9042969,12.9082078 13.5602248,13.6966113 12.8720703,14.34375 C12.1839158,14.9908887 11.3476612,15.3144531 10.3632812,15.3144531 C9.62955362,15.3144531 8.96875294,15.1663426 8.38085938,14.8701172 C7.70181952,14.5237613 7.24381629,14.0315787 7.00683594,13.3935547 C6.97037742,13.2978511 6.95214844,13.195313 6.95214844,13.0859375 C6.95214844,12.8307279 7.05468647,12.6188159 7.25976562,12.4501953 C7.45117283,12.2952466 7.66992064,12.2177734 7.91601562,12.2177734 C8.20312644,12.2177734 8.43326736,12.3317046 8.60644531,12.5595703 C8.89811344,12.9514994 9.06673154,13.1656899 9.11230469,13.2021484 C9.39485818,13.4300142 9.8118462,13.5439453 10.3632812,13.5439453 C10.7962261,13.5439453 11.1756169,13.4140638 11.5014648,13.1542969 C11.8273128,12.89453 11.9902344,12.5823586 11.9902344,12.2177734 C11.9902344,11.0830021 11.2268957,10.4404304 9.70019531,10.2900391 C9.03027009,10.2262367 8.6953125,9.94596603 8.6953125,9.44921875 C8.6953125,9.07096165 8.95507553,8.79524826 9.47460938,8.62207031 C9.96679934,8.51269477 10.4567033,8.40104224 10.9443359,8.28710938 C11.2542333,8.19140577 11.4866529,8.0660815 11.6416016,7.91113281 C11.7965503,7.75618412 11.8763021,7.57161565 11.8808594,7.35742188 C11.8990886,6.67838202 11.3681695,6.33886719 10.2880859,6.33886719 C9.93261541,6.33886719 9.54297087,6.47444526 9.11914062,6.74560547 C8.69531038,7.01676568 8.40592525,7.15234375 8.25097656,7.15234375 C7.99120964,7.15234375 7.7701832,7.05892021 7.58789062,6.87207031 C7.40559805,6.68522042 7.31445312,6.47330848 7.31445312,6.23632812 C7.31445312,5.8489564 7.6972618,5.4638691 8.46289062,5.08105469 C9.14648779,4.7392561 9.70247182,4.56835938 10.1308594,4.56835938 C11.1653698,4.56835938 11.9970672,4.79166443 12.6259766,5.23828125 C13.314131,5.73047121 13.6582031,6.43228711 13.6582031,7.34375 C13.6582031,7.84505459 13.5613616,8.27229641 13.3676758,8.62548828 C13.1739899,8.97868015 12.8834655,9.25781147 12.4960938,9.46289062 Z" id="3" stroke="#E6E2CF" fill="#E6E2CF"></path>
            </g>
        </g>
    </g>
</svg>