<?xml version="1.0" encoding="UTF-8"?>
<svg width="24px" height="24px" viewBox="0 0 24 24" version="1.1" xmlns="http://www.w3.org/2000/svg" xmlns:xlink="http://www.w3.org/1999/xlink">
    <!-- Generator: Sketch 41.2 (35397) - http://www.bohemiancoding.com/sketch -->
    <title>icon_cup</title>
    <desc>Created with Sketch.</desc>
    <defs>
        <path d="M11,13.9288639 L11,16 L14.0046024,16 C14.5543453,16 15,16.4438648 15,17 C15,17.5522847 14.5443356,18 14.0046024,18 L5.99539757,18 C5.44565467,18 5,17.5561352 5,17 C5,16.4477153 5.4556644,16 5.99539757,16 L9,16 L9,13.9289451 C6.27360997,13.538086 4.05401314,11.5730823 3.2876605,8.9896836 C1.4535386,8.81149666 0,6.36169878 0,4.5 C0,2.73676405 1.30385293,2.11012698 3,2.01366075 L3,0 L17,0 L17,2.01366075 C18.6961471,2.11012698 20,2.73676405 20,4.5 C20,6.36162076 18.5465832,8.81129134 16.7125701,8.98966118 C15.945662,11.576124 13.7227369,13.5381589 11,13.9288639 Z M16.9916522,7.34446544 C17.7308701,6.90719671 18.5,5.62546202 18.5,4.5 C18.5,3.87101235 18.1325506,3.57396623 17,3.51232947 L17,7 C17,7.11549647 16.9971958,7.23033963 16.9916522,7.34446544 Z M3,3.51232947 C1.8674494,3.57396623 1.5,3.87101235 1.5,4.5 C1.5,5.62546819 2.26913832,6.90721077 3.00835998,7.34447263 C3.00280814,7.23033357 3,7.11548767 3,7 L3,3.51232947 Z" id="path-1"></path>
    </defs>
    <g id="Symbols" stroke="none" stroke-width="1" fill="none" fill-rule="evenodd">
        <g id="icon_cup">
            <g id="cup" transform="translate(2.000000, 3.000000)">
                <mask id="mask-2" fill="white">
                    <use xlink:href="#path-1"></use>
                </mask>
                <use id="Mask" fill="#F6C020" xlink:href="#path-1"></use>
                <rect id="Rectangle-7" fill="#F5A623" mask="url(#mask-2)" x="10" y="0" width="10" height="18"></rect>
            </g>
        </g>
    </g>
</svg>