<?xml version="1.0" encoding="UTF-8"?>
<svg width="20px" height="26px" viewBox="0 0 20 26" version="1.1" xmlns="http://www.w3.org/2000/svg" xmlns:xlink="http://www.w3.org/1999/xlink">
    <!-- Generator: Sketch 41.2 (35397) - http://www.bohemiancoding.com/sketch -->
    <title>icon_two</title>
    <desc>Created with Sketch.</desc>
    <defs></defs>
    <g id="Symbols" stroke="none" stroke-width="1" fill="none" fill-rule="evenodd">
        <g id="icon_two">
            <g>
                <polygon id="Mask" fill="#9A96B3" points="3 15 17 15 17 26 10 22 3 26"></polygon>
                <circle id="Oval-3" fill="#DBDDE9" cx="10" cy="10" r="10"></circle>
                <circle id="Oval-3" fill="#B0ACCC" cx="10" cy="10" r="8"></circle>
                <path d="M12.6181641,15.0136719 C12.5042312,15.0136719 12.3276379,14.9943036 12.0883789,14.9555664 C11.8491199,14.9168292 11.6770839,14.8974609 11.5722656,14.8974609 L9.5625,14.890625 C9.38932205,14.890625 9.1272804,14.9122719 8.77636719,14.9555664 C8.42545397,14.9988609 8.1611337,15.0205078 7.98339844,15.0205078 C7.93326798,15.0205078 7.86035204,15.0113933 7.76464844,14.9931641 C7.66894483,14.9749348 7.5960289,14.9658203 7.54589844,14.9658203 C7.13574014,14.9658203 6.85774813,14.7994808 6.71191406,14.4667969 C6.62076777,14.2571604 6.57519531,13.9335959 6.57519531,13.4960938 C6.57519531,12.6438759 6.76432103,11.9306669 7.14257812,11.3564453 C7.43424625,10.9143858 7.90592122,10.4723329 8.55761719,10.0302734 C9.17285464,9.62467245 9.78580424,9.22135617 10.3964844,8.8203125 C11.1165401,8.29622134 11.4765625,7.70150072 11.4765625,7.03613281 C11.4765625,6.86295486 11.3330092,6.69091882 11.0458984,6.52001953 C10.7587876,6.34912024 10.478517,6.26367188 10.2050781,6.26367188 C9.72200279,6.26367188 9.21045192,6.47900175 8.67041016,6.90966797 C8.13036839,7.34033418 7.76009215,7.55566406 7.55957031,7.55566406 C7.31803265,7.55566406 7.1061207,7.49641986 6.92382812,7.37792969 C6.6959624,7.23209562 6.58203125,7.02929817 6.58203125,6.76953125 C6.58203125,6.49153507 6.6959624,6.25227965 6.92382812,6.05175781 C7.47526317,5.56412517 7.95605264,5.20865997 8.36621094,4.98535156 C8.95866182,4.66178224 9.57161142,4.5 10.2050781,4.5 C10.9934935,4.5 11.7044239,4.7073547 12.3378906,5.12207031 C13.0625036,5.59603102 13.4248047,6.21581648 13.4248047,6.98144531 C13.4248047,7.75618877 13.2470721,8.41471083 12.8916016,8.95703125 C12.6136054,9.38997612 12.1738311,9.81152139 11.5722656,10.2216797 C11.0026013,10.5817075 10.4329456,10.9394513 9.86328125,11.2949219 C8.9973915,11.8600289 8.5325524,12.5048792 8.46875,13.2294922 C8.71940229,13.197591 9.08853923,13.161133 9.57617188,13.1201172 C10.5468799,13.0699867 11.2418599,13.0449219 11.6611328,13.0449219 C12.0530619,13.0449219 12.4404278,13.1292309 12.8232422,13.2978516 C13.2972029,13.507488 13.5341797,13.7763655 13.5341797,14.1044922 C13.5341797,14.3414725 13.4498706,14.5488272 13.28125,14.7265625 C13.1035147,14.9179697 12.8824883,15.0136719 12.6181641,15.0136719 Z" id="2" stroke="#DBDDE8" fill="#DBDDE8"></path>
            </g>
        </g>
    </g>
</svg>