<?xml version="1.0" encoding="UTF-8"?>
<svg width="20px" height="26px" viewBox="0 0 20 26" version="1.1" xmlns="http://www.w3.org/2000/svg" xmlns:xlink="http://www.w3.org/1999/xlink">
    <!-- Generator: Sketch 41.2 (35397) - http://www.bohemiancoding.com/sketch -->
    <title>icon_one</title>
    <desc>Created with Sketch.</desc>
    <defs></defs>
    <g id="Symbols" stroke="none" stroke-width="1" fill="none" fill-rule="evenodd">
        <g id="icon_one">
            <g>
                <polygon id="Mask" fill="#F09800" points="3 15 17 15 17 26 10 22 3 26"></polygon>
                <circle id="Oval-3" fill="#F2D649" cx="10" cy="10" r="10"></circle>
                <circle id="Oval-3" fill="#E6A22E" cx="10" cy="10" r="8"></circle>
                <path d="M11.3466797,15.0068359 L8.6328125,15 C7.77148007,15 7.34082031,14.7288439 7.34082031,14.1865234 C7.34082031,13.5758433 7.82160978,13.2705078 8.78320312,13.2705078 C8.87434941,13.2705078 8.97460883,13.2727864 9.08398438,13.2773438 L9.08398438,7.21386719 C8.68749802,7.48730605 8.43001361,7.62402344 8.31152344,7.62402344 C8.05631383,7.62402344 7.83414808,7.53287852 7.64501953,7.35058594 C7.45589098,7.16829336 7.36132812,6.95638142 7.36132812,6.71484375 C7.36132812,6.46419146 7.51399587,6.20670705 7.81933594,5.94238281 L8.59179688,5.38183594 L9.42578125,4.71191406 C9.76757983,4.46581908 10.0979802,4.34277344 10.4169922,4.34277344 C10.8271505,4.34277344 11.0322266,4.58886473 11.0322266,5.08105469 C11.0322266,5.62337511 11.0094403,6.38671383 10.9638672,7.37109375 C10.918294,8.35547367 10.8955078,9.76138409 10.8955078,11.5888672 L10.8955078,13.2431641 L11.3466797,13.2431641 C11.6110039,13.2431641 11.8331697,13.3274731 12.0131836,13.4960938 C12.1931975,13.6647144 12.2832031,13.8743477 12.2832031,14.125 C12.2832031,14.3756523 12.1931975,14.5852856 12.0131836,14.7539062 C11.8331697,14.9225269 11.6110039,15.0068359 11.3466797,15.0068359 Z" id="1" stroke="#F1D549" fill="#F1D549"></path>
            </g>
        </g>
    </g>
</svg>