<?xml version="1.0" encoding="UTF-8"?>
<svg width="113px" height="48px" viewBox="0 0 113 48" version="1.1" xmlns="http://www.w3.org/2000/svg" xmlns:xlink="http://www.w3.org/1999/xlink">
    <!-- Generator: Sketch 41.2 (35397) - http://www.bohemiancoding.com/sketch -->
    <title>pic_goldbar</title>
    <desc>Created with Sketch.</desc>
    <defs></defs>
    <g id="Symbols" stroke="none" stroke-width="1" fill="none" fill-rule="evenodd">
        <g id="pic_goldbar" fill="#FFF7CE">
            <path d="M20,0 L30,0 L30,10 L20,10 L20,0 Z M0,0 L10,0 L10,10 L0,10 L0,0 Z M60,0 L70,0 L70,10 L60,10 L60,0 Z M40,0 L50,0 L50,10 L40,10 L40,0 Z M80,0 L90,0 L90,10 L80,10 L80,0 Z M100,4 L106,4 L106,10 L100,10 L100,4 Z M30,10 L40,10 L40,20 L30,20 L30,10 Z M10,10 L20,10 L20,20 L10,20 L10,10 Z M70,10 L80,10 L80,20 L70,20 L70,10 Z M50,10 L60,10 L60,20 L50,20 L50,10 Z M90,10 L100,10 L100,20 L90,20 L90,10 Z M106,10 L110,10 L110,14 L106,14 L106,10 Z M30,29 L40,29 L40,39 L30,39 L30,29 Z M10,29 L20,29 L20,39 L10,39 L10,29 Z M70,29 L80,29 L80,39 L70,39 L70,29 Z M106,29 L111,29 L111,34 L106,34 L106,29 Z M50,29 L60,29 L60,39 L50,39 L50,29 Z M90,29 L100,29 L100,39 L90,39 L90,29 Z M20,19 L30,19 L30,29 L20,29 L20,19 Z M0,19 L10,19 L10,29 L0,29 L0,19 Z M60,19 L70,19 L70,29 L60,29 L60,19 Z M40,19 L50,19 L50,29 L40,29 L40,19 Z M80,19 L90,19 L90,29 L80,29 L80,19 Z M100,19 L106,19 L106,25 L100,25 L100,19 Z M110,14 L113,14 L113,17 L110,17 L110,14 Z M20,38 L30,38 L30,48 L20,48 L20,38 Z M0,38 L10,38 L10,48 L0,48 L0,38 Z M60,38 L70,38 L70,48 L60,48 L60,38 Z M40,38 L50,38 L50,48 L40,48 L40,38 Z M80,38 L90,38 L90,48 L80,48 L80,38 Z M100,38 L106,38 L106,44 L100,44 L100,38 Z"></path>
        </g>
    </g>
</svg>