<?xml version="1.0" encoding="UTF-8"?>
<svg width="42px" height="34px" viewBox="0 0 42 34" version="1.1" xmlns="http://www.w3.org/2000/svg" xmlns:xlink="http://www.w3.org/1999/xlink">
    <!-- Generator: Sketch 41.2 (35397) - http://www.bohemiancoding.com/sketch -->
    <title>pic_vip_4</title>
    <desc>Created with Sketch.</desc>
    <defs>
        <path d="M13.6814824,6.69474759 L17.1511609,8.51535595 C17.8765514,6.94717521 18.8211349,5.46413676 20.0167878,4.07852332 C19.3203548,3.72025311 18.8438987,2.99452496 18.8436141,2.15753365 C18.8432088,0.965373547 19.8089875,-0.00040517448 21.0011476,1.27521074e-07 C22.1933077,0.000405429522 23.1597434,0.966841051 23.1601487,2.15900115 C23.1604332,2.99594018 22.6845299,3.72130619 21.9884113,4.07912652 C23.1850341,5.46557249 24.1306449,6.94927612 24.8571136,8.51797577 L28.3328368,6.69590885 C28.1117994,6.4332845 27.9785514,6.0944072 27.9784256,5.72441643 C27.978142,4.89007634 28.6549133,4.21441347 29.4892533,4.21469712 C30.3235934,4.21498077 30.9997163,4.8911036 30.9999999,5.72544369 C31.0002643,6.50324873 30.4130829,7.14315233 29.6575388,7.22607125 L27.3605713,13.6496165 C27.3953619,13.8574397 27.4132634,14.0703756 27.4424241,14.2792205 L14.5697671,14.2748441 C14.5987858,14.066019 14.617481,13.8530955 14.6511919,13.6452957 L12.3574907,7.24150174 C11.5955607,7.16395223 11.0002661,6.52055685 11.0000001,5.7380396 C10.9997163,4.90339344 11.6764875,4.22748263 12.5108276,4.22776628 C13.3451677,4.22804993 14.0212906,4.9044207 14.0215744,5.73906686 C14.0216977,6.10175276 13.8941862,6.43446574 13.6814824,6.69474759 L13.6814824,6.69474759 Z M14.1887884,15.2132591 C14.1308239,15.769465 14.0647168,16.3223174 14.0253649,16.8885819 L27.9822228,16.8933268 C27.9424858,16.3270354 27.8760028,15.774138 27.8176601,15.2178926 L14.1887884,15.2132591 Z" id="path-1"></path>
        <mask id="mask-2" maskContentUnits="userSpaceOnUse" maskUnits="objectBoundingBox" x="0" y="0" width="20" height="16.8933268" fill="white">
            <use xlink:href="#path-1"></use>
        </mask>
    </defs>
    <g id="Symbols" stroke="none" stroke-width="1" fill="none" fill-rule="evenodd">
        <g id="pic_vip_4">
            <path d="M8,16 L1.99749218,16 C0.896660339,16 0,16.8932319 0,17.9950893 L0,32.0049107 C0,33.1073772 0.894307712,34 1.99749218,34 L40.0025078,34 C41.1033397,34 42,33.1067681 42,32.0049107 L42,17.9950893 C42,16.8926228 41.1056923,16 40.0025078,16 L34,16 L34,17 L40.0025078,17 C40.5539346,17 41,17.4454348 41,17.9950893 L41,32.0049107 C41,32.5532205 40.5523184,33 40.0025078,33 L1.99749218,33 C1.44606538,33 1,32.5545652 1,32.0049107 L1,17.9950893 C1,17.4467795 1.44768156,17 1.99749218,17 L8,17 L8,16 Z" id="Combined-Shape" fill="#ED3336"></path>
            <use id="Combined-Shape" stroke="#ED3336" mask="url(#mask-2)" stroke-width="2" xlink:href="#path-1"></use>
            <path d="M8.47000027,21.86 L11.0100003,29 L12.4200003,29 L14.9600003,21.86 L13.6900003,21.86 L11.7300003,27.68 L11.7000003,27.68 L9.74000027,21.86 L8.47000027,21.86 Z M15.9300003,21.86 L15.9300003,29 L17.1000003,29 L17.1000003,21.86 L15.9300003,21.86 Z M18.7200003,21.86 L18.7200003,29 L19.8900003,29 L19.8900003,26.26 L21.6600003,26.26 C23.4000003,26.26 24.2700003,25.52 24.2700003,24.05 C24.2700003,22.59 23.4000003,21.86 21.6800003,21.86 L18.7200003,21.86 Z M19.8900003,22.86 L21.5900003,22.86 C22.1000003,22.86 22.4800003,22.95 22.7200003,23.14 C22.9600003,23.32 23.0900003,23.62 23.0900003,24.05 C23.0900003,24.48 22.9700003,24.79 22.7300003,24.98 C22.4900003,25.16 22.1100003,25.26 21.5900003,25.26 L19.8900003,25.26 L19.8900003,22.86 Z M26.1600003,27.49 C25.9400003,27.49 25.7500003,27.56 25.6100003,27.72 C25.4500003,27.87 25.3800003,28.06 25.3800003,28.28 C25.3800003,28.5 25.4500003,28.68 25.6100003,28.84 C25.7500003,28.98 25.9400003,29.06 26.1600003,29.06 C26.3800003,29.06 26.5600003,28.98 26.7200003,28.84 C26.8700003,28.68 26.9500003,28.5 26.9500003,28.28 C26.9500003,28.06 26.8700003,27.87 26.7200003,27.72 C26.5600003,27.56 26.3800003,27.49 26.1600003,27.49 Z M31.4400003,21.86 L27.9500003,26.36 L27.9500003,27.47 L31.4000003,27.47 L31.4000003,29 L32.5100003,29 L32.5100003,27.47 L33.5700003,27.47 L33.5700003,26.54 L32.5100003,26.54 L32.5100003,21.86 L31.4400003,21.86 Z M31.3700003,23.34 L31.4000003,23.34 L31.4000003,26.54 L28.9000003,26.54 L31.3700003,23.34 Z" id="VIP.4" fill="#F92F37"></path>
        </g>
    </g>
</svg>