<?xml version="1.0" encoding="UTF-8"?>
<svg width="25px" height="14px" viewBox="0 0 25 14" version="1.1" xmlns="http://www.w3.org/2000/svg" xmlns:xlink="http://www.w3.org/1999/xlink">
    <!-- Generator: Sketch 41.2 (35397) - http://www.bohemiancoding.com/sketch -->
    <title>icon_party</title>
    <desc>Created with Sketch.</desc>
    <defs>
        <rect id="path-1" x="0" y="0" width="25" height="14" rx="2"></rect>
        <mask id="mask-2" maskContentUnits="userSpaceOnUse" maskUnits="objectBoundingBox" x="0" y="0" width="25" height="14" fill="white">
            <use xlink:href="#path-1"></use>
        </mask>
    </defs>
    <g id="Symbols" stroke="none" stroke-width="1" fill="none" fill-rule="evenodd">
        <g id="icon_party">
            <g id="活动">
                <use id="Rectangle-4" stroke="#F57C7C" mask="url(#mask-2)" fill-opacity="0.2" fill="#F57C7C" xlink:href="#path-1"></use>
                <polygon id="Rectangle-4" fill="#FFFFFF" opacity="0.5" points="15 0.5 21 0.5 11.0081416 13.4890088 5 13.5"></polygon>
                <path d="M6.788,5.792 L6.788,6.344 L9.076,6.344 L9.076,7.584 L7.324,7.584 L7.324,10.808 L7.892,10.808 L7.892,10.368 L10.892,10.368 L10.892,10.792 L11.46,10.792 L11.46,7.584 L9.66,7.584 L9.66,6.344 L11.964,6.344 L11.964,5.792 L9.66,5.792 L9.66,4.464 C10.388,4.36 11.028,4.208 11.588,4.008 L11.308,3.512 C10.156,3.904 8.7,4.104 6.956,4.104 L7.132,4.624 C7.82,4.624 8.468,4.592 9.076,4.536 L9.076,5.792 L6.788,5.792 Z M7.892,9.824 L7.892,8.128 L10.892,8.128 L10.892,9.824 L7.892,9.824 Z M5.34,3.576 L4.948,3.952 C5.524,4.336 5.98,4.688 6.308,5.024 L6.7,4.632 C6.332,4.28 5.876,3.928 5.34,3.576 Z M5.156,5.488 L4.756,5.88 C5.34,6.296 5.796,6.696 6.132,7.072 L6.532,6.672 C6.164,6.272 5.7,5.88 5.156,5.488 Z M6.1,7.616 C5.764,8.584 5.356,9.528 4.892,10.456 L5.468,10.704 C5.884,9.808 6.268,8.84 6.62,7.816 L6.1,7.616 Z M13.22,4.024 L13.22,4.576 L16.116,4.576 L16.116,4.024 L13.22,4.024 Z M12.908,6.184 L12.908,6.744 L14.02,6.744 C13.62,8.2 13.3,9.088 13.06,9.416 C13.028,9.432 12.988,9.448 12.932,9.464 L13.068,10.008 C14.06,9.832 14.988,9.592 15.836,9.288 C15.916,9.472 15.996,9.664 16.076,9.872 L16.572,9.616 C16.236,8.808 15.876,8.064 15.492,7.376 L15.004,7.616 C15.212,7.984 15.412,8.376 15.62,8.808 C14.996,9.04 14.364,9.224 13.732,9.352 C13.972,8.824 14.252,7.96 14.572,6.744 L16.42,6.744 L16.42,6.184 L12.908,6.184 Z M17.62,3.488 L17.62,5.104 L16.54,5.104 L16.54,5.664 L17.62,5.664 L17.62,5.76 C17.604,7.912 17.092,9.472 16.092,10.44 L16.524,10.816 C17.612,9.752 18.172,8.064 18.196,5.76 L18.196,5.664 L19.38,5.664 C19.364,7.816 19.332,9.104 19.284,9.528 C19.22,9.984 18.988,10.216 18.596,10.216 C18.38,10.216 18.124,10.2 17.836,10.184 L17.964,10.696 C18.3,10.712 18.532,10.72 18.668,10.72 C19.356,10.72 19.748,10.392 19.828,9.744 C19.9,9.152 19.94,7.608 19.94,5.104 L18.196,5.104 L18.196,3.488 L17.62,3.488 Z" fill="#F03030"></path>
            </g>
        </g>
    </g>
</svg>