<?xml version="1.0" encoding="UTF-8"?>
<svg width="25px" height="14px" viewBox="0 0 25 14" version="1.1" xmlns="http://www.w3.org/2000/svg" xmlns:xlink="http://www.w3.org/1999/xlink">
    <!-- Generator: Sketch 41.2 (35397) - http://www.bohemiancoding.com/sketch -->
    <title>icon_own</title>
    <desc>Created with Sketch.</desc>
    <defs>
        <rect id="path-1" x="0" y="0" width="25" height="14" rx="2"></rect>
        <mask id="mask-2" maskContentUnits="userSpaceOnUse" maskUnits="objectBoundingBox" x="0" y="0" width="25" height="14" fill="white">
            <use xlink:href="#path-1"></use>
        </mask>
    </defs>
    <g id="Symbols" stroke="none" stroke-width="1" fill="none" fill-rule="evenodd">
        <g id="icon_own">
            <g id="新服">
                <use id="Rectangle-4" stroke="#1BA2E6" mask="url(#mask-2)" fill-opacity="0.2" fill="#1BA2E6" xlink:href="#path-1"></use>
                <polygon id="Rectangle-4" fill="#FFFFFF" opacity="0.5" points="15 0.5 21 0.5 11.0081416 13.4890088 5 13.5"></polygon>
                <path d="M7.352,4.8 L7.352,8.024 L8.984,8.024 L8.984,9.928 C8.392,9.992 7.744,10.04 7.04,10.08 L7.128,10.664 C8.72,10.528 9.96,10.36 10.848,10.16 C10.904,10.376 10.96,10.6 11.016,10.84 L11.544,10.704 C11.328,9.824 11.08,9.048 10.808,8.368 L10.336,8.528 C10.472,8.888 10.6,9.264 10.712,9.648 C10.36,9.72 9.976,9.792 9.56,9.856 L9.56,8.024 L11.2,8.024 L11.2,4.8 L9.552,4.8 L9.552,3.496 L8.976,3.496 L8.976,4.8 L7.352,4.8 Z M10.64,7.488 L9.552,7.488 L9.552,5.336 L10.64,5.336 L10.64,7.488 Z M8.992,7.488 L7.92,7.488 L7.92,5.336 L8.992,5.336 L8.992,7.488 Z M6.776,3.576 C6.52,3.976 6.248,4.328 5.952,4.648 C5.728,4.312 5.456,3.976 5.128,3.648 L4.68,4 C5.032,4.304 5.32,4.648 5.552,5.024 C5.216,5.312 4.84,5.56 4.432,5.76 L4.744,6.256 C5.144,6.016 5.496,5.768 5.808,5.528 C5.84,5.584 5.864,5.648 5.896,5.72 C5.976,5.944 6.04,6.2 6.096,6.496 C5.696,7.176 5.136,7.76 4.416,8.24 L4.736,8.72 C5.296,8.328 5.784,7.84 6.192,7.256 C6.208,7.536 6.224,7.848 6.232,8.184 C6.232,9.232 6.128,9.856 5.928,10.064 C5.832,10.152 5.656,10.2 5.384,10.2 C5.192,10.2 4.984,10.184 4.768,10.168 L4.936,10.704 C5.08,10.704 5.272,10.712 5.512,10.712 C5.848,10.712 6.104,10.64 6.296,10.504 C6.616,10.248 6.776,9.48 6.776,8.216 C6.752,7.032 6.624,6.12 6.392,5.48 C6.344,5.368 6.296,5.256 6.24,5.144 C6.576,4.816 6.912,4.392 7.248,3.872 L6.776,3.576 Z M17.432,7.68 C17.816,8.776 18.448,9.68 19.328,10.392 L19.736,9.92 C18.888,9.32 18.272,8.52 17.896,7.512 C18.392,7.32 18.848,7.08 19.272,6.8 L18.88,6.408 C18.208,6.848 17.504,7.168 16.76,7.376 C16.592,7.04 16.368,6.728 16.088,6.44 C16.304,6.312 16.52,6.168 16.744,6.016 L18.576,6.016 L18.576,5.48 L13.784,5.48 L13.784,6.016 L15.904,6.016 C15.648,6.16 15.368,6.288 15.08,6.416 C14.464,6.68 13.768,6.896 13,7.064 L13.296,7.536 C14.192,7.28 14.92,7.024 15.472,6.768 C15.528,6.736 15.584,6.712 15.648,6.68 C15.76,6.808 15.872,6.944 15.968,7.096 C15.24,7.656 14.2,8.104 12.856,8.456 L13.144,8.952 C14.44,8.584 15.464,8.104 16.216,7.512 C16.312,7.704 16.384,7.904 16.448,8.112 C15.576,8.832 14.344,9.416 12.76,9.88 L13.048,10.376 C14.496,9.936 15.664,9.368 16.56,8.664 C16.576,8.792 16.584,8.92 16.592,9.064 C16.592,9.56 16.52,9.896 16.376,10.072 C16.256,10.208 15.96,10.28 15.488,10.288 L15.104,10.288 L15.296,10.792 L15.568,10.792 C16.256,10.792 16.704,10.648 16.896,10.376 C17.064,10.136 17.152,9.696 17.152,9.064 C17.144,8.624 17.072,8.208 16.944,7.816 C17.104,7.776 17.272,7.728 17.432,7.68 Z M16.272,3.408 L15.688,3.512 C15.784,3.704 15.88,3.928 15.968,4.168 L12.8,4.168 L12.8,5.56 L13.368,5.56 L13.368,4.704 L18.984,4.704 L18.984,5.56 L19.552,5.56 L19.552,4.168 L16.544,4.168 C16.456,3.888 16.368,3.632 16.272,3.408 Z" id="独家" fill="#007ACC"></path>
            </g>
        </g>
    </g>
</svg>