<?xml version="1.0" encoding="UTF-8"?>
<svg width="25px" height="14px" viewBox="0 0 25 14" version="1.1" xmlns="http://www.w3.org/2000/svg" xmlns:xlink="http://www.w3.org/1999/xlink">
    <!-- Generator: Sketch 41.2 (35397) - http://www.bohemiancoding.com/sketch -->
    <title>icon_gift</title>
    <desc>Created with Sketch.</desc>
    <defs>
        <rect id="path-1" x="0" y="0" width="25" height="14" rx="2"></rect>
        <mask id="mask-2" maskContentUnits="userSpaceOnUse" maskUnits="objectBoundingBox" x="0" y="0" width="25" height="14" fill="white">
            <use xlink:href="#path-1"></use>
        </mask>
    </defs>
    <g id="Symbols" stroke="none" stroke-width="1" fill="none" fill-rule="evenodd">
        <g id="icon_gift">
            <g id="活动">
                <use id="Rectangle-4" stroke="#FFAE33" mask="url(#mask-2)" fill-opacity="0.2" fill="#FFAE33" xlink:href="#path-1"></use>
                <polygon id="Rectangle-4" fill="#FFFFFF" opacity="0.5" points="15 0.5 21 0.5 11.0081416 13.4890088 5 13.5"></polygon>
                <path d="M6.268,7.336 L6.268,10.816 L6.852,10.816 L6.852,7.28 C7.26,7.536 7.668,7.856 8.076,8.232 L8.396,7.736 C7.948,7.352 7.46,7.016 6.932,6.72 C7.46,6.176 7.844,5.632 8.092,5.088 L8.092,4.592 L6.596,4.592 L6.844,4.496 C6.756,4.16 6.628,3.8 6.468,3.408 L5.9,3.568 C6.06,3.896 6.196,4.24 6.308,4.592 L4.932,4.592 L4.932,5.152 L7.476,5.152 C7.012,6.016 6.068,6.896 4.66,7.808 L4.828,8.392 C5.364,8.04 5.844,7.688 6.268,7.336 Z M10.948,10.68 C11.3,10.68 11.548,10.584 11.684,10.392 C11.82,10.192 11.908,9.632 11.948,8.712 L11.404,8.536 C11.372,9.328 11.324,9.792 11.252,9.928 C11.172,10.056 11.036,10.12 10.852,10.12 L9.756,10.12 C9.54,10.12 9.436,10.008 9.436,9.784 L9.436,3.504 L8.852,3.504 L8.852,9.864 C8.852,10.408 9.108,10.68 9.62,10.68 L10.948,10.68 Z M17.564,5.896 L14.1,5.896 L14.1,10.016 C14.1,10.464 14.348,10.696 14.852,10.696 L19.052,10.696 C19.42,10.68 19.668,10.52 19.788,10.2 C19.86,9.992 19.916,9.64 19.964,9.144 L19.42,8.968 C19.38,9.464 19.332,9.784 19.268,9.912 C19.196,10.064 19.068,10.144 18.884,10.152 L15.068,10.152 C14.812,10.152 14.676,10.032 14.676,9.808 L14.676,8.328 L17.564,8.328 L17.564,5.896 Z M14.676,7.8 L14.676,6.424 L16.988,6.424 L16.988,7.8 L14.676,7.8 Z M14.844,3.392 C14.364,4.512 13.748,5.424 12.996,6.112 L13.396,6.592 C13.9,6.104 14.348,5.528 14.748,4.872 L18.932,4.872 C18.916,6.536 18.884,7.528 18.836,7.848 C18.796,8.168 18.644,8.328 18.38,8.328 C18.22,8.328 18.036,8.312 17.82,8.296 L17.956,8.816 C18.196,8.832 18.364,8.84 18.46,8.84 C19.012,8.84 19.324,8.584 19.396,8.072 C19.476,7.592 19.516,6.344 19.516,4.32 L15.052,4.32 C15.18,4.064 15.308,3.792 15.42,3.52 L14.844,3.392 Z" id="礼包" fill="#FA8E00"></path>
            </g>
        </g>
    </g>
</svg>