<?xml version="1.0" encoding="UTF-8"?>
<svg width="25px" height="14px" viewBox="0 0 25 14" version="1.1" xmlns="http://www.w3.org/2000/svg" xmlns:xlink="http://www.w3.org/1999/xlink">
    <!-- Generator: Sketch 41.2 (35397) - http://www.bohemiancoding.com/sketch -->
    <title>icon_newser</title>
    <desc>Created with Sketch.</desc>
    <defs>
        <rect id="path-1" x="0" y="0" width="25" height="14" rx="2"></rect>
        <mask id="mask-2" maskContentUnits="userSpaceOnUse" maskUnits="objectBoundingBox" x="0" y="0" width="25" height="14" fill="white">
            <use xlink:href="#path-1"></use>
        </mask>
    </defs>
    <g id="Symbols" stroke="none" stroke-width="1" fill="none" fill-rule="evenodd">
        <g id="icon_newser">
            <g id="新服">
                <use id="Rectangle-4" stroke="#66CC99" mask="url(#mask-2)" fill-opacity="0.2" fill="#66CC99" xlink:href="#path-1"></use>
                <polygon id="Rectangle-4" fill="#FFFFFF" opacity="0.5" points="15 0.5 21 0.5 11.0081416 13.4890088 5 13.5"></polygon>
                <path d="M11.152,3.544 C10.376,3.88 9.504,4.064 8.536,4.08 L8.536,7.504 C8.496,8.72 8.24,9.672 7.768,10.36 L8.176,10.792 C8.752,9.976 9.056,8.88 9.096,7.504 L9.096,6.552 L10.28,6.552 L10.28,10.824 L10.848,10.824 L10.848,6.552 L11.68,6.552 L11.68,6 L9.096,6 L9.096,4.544 C9.96,4.496 10.736,4.328 11.44,4.056 L11.152,3.544 Z M4.488,4.16 L4.488,4.688 L8.096,4.688 L8.096,4.16 L6.584,4.16 C6.472,3.872 6.36,3.608 6.24,3.368 L5.648,3.464 C5.784,3.672 5.904,3.904 6.016,4.16 L4.488,4.16 Z M4.408,5.976 L4.408,6.496 L6.024,6.496 L6.024,7.392 L4.536,7.392 L4.536,7.92 L6.024,7.92 L6.024,10.048 C6.024,10.24 5.92,10.336 5.712,10.336 C5.6,10.336 5.48,10.32 5.352,10.296 L5.472,10.832 L5.904,10.832 C6.368,10.832 6.6,10.616 6.6,10.184 L6.6,7.92 L8.008,7.92 L8.008,7.392 L6.6,7.392 L6.6,6.496 L8.144,6.496 L8.144,5.976 L7.24,5.976 C7.392,5.704 7.528,5.392 7.656,5.048 L7.136,4.872 C7.016,5.256 6.88,5.624 6.72,5.976 L5.84,5.976 C5.712,5.544 5.568,5.184 5.416,4.888 L4.904,5.072 C5.064,5.352 5.208,5.656 5.328,5.976 L4.408,5.976 Z M5.096,8.352 C4.92,9.056 4.648,9.696 4.272,10.272 L4.752,10.576 C5.12,9.976 5.416,9.272 5.624,8.464 L5.096,8.352 Z M7.392,8.296 L6.912,8.424 C7.136,8.904 7.32,9.4 7.472,9.904 L7.952,9.72 C7.824,9.288 7.632,8.816 7.392,8.296 Z M13.632,6.2 L14.92,6.2 L14.92,7.536 L13.632,7.536 L13.632,6.2 Z M14.92,5.68 L13.632,5.68 L13.632,4.328 L14.92,4.328 L14.92,5.68 Z M13.624,8.056 L14.92,8.056 L14.92,9.864 C14.92,10.152 14.816,10.296 14.616,10.296 C14.424,10.296 14.224,10.28 14,10.264 L14.136,10.776 L14.776,10.776 C15.224,10.776 15.448,10.528 15.448,10.048 L15.448,3.808 L13.112,3.808 L13.112,7.648 C13.104,8.768 12.944,9.696 12.624,10.416 L13.056,10.816 C13.384,10.096 13.576,9.176 13.624,8.056 Z M16.664,7.264 L16.856,7.264 C17.032,8.048 17.376,8.752 17.888,9.376 C17.568,9.76 17.184,10.072 16.728,10.32 L17.032,10.784 C17.512,10.528 17.92,10.2 18.272,9.792 C18.64,10.152 19.072,10.48 19.584,10.776 L19.872,10.288 C19.384,10.008 18.96,9.696 18.6,9.344 C18.968,8.768 19.232,8.064 19.384,7.24 L19.384,6.752 L16.664,6.752 L16.664,4.328 L18.8,4.328 C18.784,4.936 18.752,5.328 18.696,5.504 C18.648,5.624 18.576,5.704 18.48,5.736 C18.384,5.76 18.248,5.776 18.056,5.776 C17.832,5.776 17.656,5.768 17.52,5.768 L17.672,6.264 L18.32,6.264 C18.824,6.264 19.12,6.096 19.216,5.768 C19.312,5.448 19.36,4.792 19.36,3.8 L16.12,3.8 L16.12,10.808 L16.664,10.808 L16.664,7.264 Z M17.352,7.264 L18.872,7.264 C18.728,7.896 18.512,8.448 18.216,8.928 C17.808,8.432 17.52,7.88 17.352,7.264 Z" fill="#00AD57"></path>
            </g>
        </g>
    </g>
</svg>