<?xml version="1.0" encoding="UTF-8"?>
<svg width="32px" height="32px" viewBox="0 0 32 32" version="1.1" xmlns="http://www.w3.org/2000/svg" xmlns:xlink="http://www.w3.org/1999/xlink">
    <!-- Generator: Sketch 42 (36781) - http://www.bohemiancoding.com/sketch -->
    <title>icon_hd</title>
    <desc>Created with Sketch.</desc>
    <defs></defs>
    <g id="Symbols" stroke="none" stroke-width="1" fill="none" fill-rule="evenodd">
        <g id="icon_hd" fill-rule="nonzero" fill="#3E3E3E">
            <g transform="translate(6.500000, 6.500000)">
                <path d="M9.50006703,12.7822591 L11.0913502,13.6188462 C12.1940639,14.1985771 12.7237066,13.8124696 12.5133053,12.5857353 L12.2093972,10.8138155 L13.4967723,9.55893494 C14.3888865,8.68933856 14.185345,8.06630459 12.9536338,7.88732648 L11.1745252,7.62880687 L10.3788836,6.01666096 C9.82752673,4.89948992 9.17208844,4.90054129 8.62125045,6.01666096 L7.82560888,7.62880687 L6.04650025,7.88732648 C4.8136288,8.06647319 4.61208715,8.69015694 5.50336173,9.55893494 L6.79073684,10.8138155 L6.4868288,12.5857353 C6.27622921,13.8136251 6.80710791,14.1980315 7.90878389,13.6188462 L9.50006703,12.7822591 Z M7.42167697,6.67699947 L7.04520809,6.95052013 L7.16154337,6.7147991 L7.42167697,6.67699947 Z M8.37412502,14.5039776 C6.53965966,15.4684131 5.15035009,14.4624216 5.50122048,12.4166903 L5.71625627,11.1629354 L4.80535004,10.2750213 C3.3212364,8.82836804 3.84867092,7.19618764 5.90270193,6.89771947 L7.16154337,6.7147991 L7.72451438,5.57409525 C8.64174705,3.71557885 10.3570291,3.71282741 11.2756197,5.57409525 L11.8385907,6.7147991 L13.0974321,6.89771947 C15.1484267,7.19574643 15.6810948,8.82622634 14.194784,10.2750213 L13.2838778,11.1629354 L13.4989136,12.4166903 C13.8492653,14.4593975 12.4631902,15.4698409 10.626009,14.5039776 L9.50006703,13.9120349 L8.37412502,14.5039776 Z" id="Star"></path>
                <path d="M14.3884461,1.35258975 C12.9602953,0.493855775 11.2878208,0 9.5,0 C4.25329488,0 0,4.25329488 0,9.5 C0,14.7467051 4.25329488,19 9.5,19 C14.7467051,19 19,14.7467051 19,9.5 C19,7.71217923 18.5061442,6.03970466 17.6474102,4.61155385 L16.7897881,5.12612713 C17.558129,6.40394627 18,7.90037089 18,9.5 C18,14.1944204 14.1944204,18 9.5,18 C4.80557963,18 1,14.1944204 1,9.5 C1,4.80557963 4.80557963,1 9.5,1 C11.0996291,1 12.5960537,1.44187096 13.8738729,2.21021188 L14.3884461,1.35258975 Z" id="Combined-Shape"></path>
            </g>
        </g>
    </g>
</svg>