<?xml version="1.0" encoding="UTF-8"?>
<svg width="24px" height="24px" viewBox="0 0 24 24" version="1.1" xmlns="http://www.w3.org/2000/svg" xmlns:xlink="http://www.w3.org/1999/xlink">
    <!-- Generator: Sketch 42 (36781) - http://www.bohemiancoding.com/sketch -->
    <title>index_search</title>
    <desc>Created with Sketch.</desc>
    <defs></defs>
    <g id="Symbols" stroke="none" stroke-width="1" fill="none" fill-rule="evenodd">
        <g id="index_search" fill="#5FBEEE">
            <path d="M15.7260461,17.6617868 C14.4237302,18.5804247 12.8348773,19.1199999 11.1199999,19.1199999 C6.70172189,19.1199999 3.11999989,15.5382779 3.11999989,11.1199999 C3.11999989,6.70172189 6.70172189,3.11999989 11.1199999,3.11999989 C15.5382779,3.11999989 19.1199999,6.70172189 19.1199999,11.1199999 C19.1199999,12.8347941 18.5804771,14.423576 17.6619205,15.7258566 C17.8539925,15.7988914 18.0344274,15.9131071 18.1900608,16.0687404 L20.313395,18.1920746 C20.8986253,18.7773049 20.9022585,19.7225176 20.312388,20.312388 C19.7266016,20.8981745 18.7814808,20.9028012 18.1920746,20.313395 L16.0687404,18.1900608 C15.9135231,18.0348435 15.7992176,17.8543035 15.7260461,17.6617868 Z M11.1199999,17.1199999 C14.4337084,17.1199999 17.1199999,14.4337084 17.1199999,11.1199999 C17.1199999,7.80629139 14.4337084,5.11999989 11.1199999,5.11999989 C7.80629139,5.11999989 5.11999989,7.80629139 5.11999989,11.1199999 C5.11999989,14.4337084 7.80629139,17.1199999 11.1199999,17.1199999 Z" id="Combined-Shape"></path>
            <path d="M15.15,11 C15.15,8.70801829 13.2919817,6.85 11,6.85 C10.6410149,6.85 10.35,7.14101491 10.35,7.5 C10.35,7.85898509 10.6410149,8.15 11,8.15 C12.5740115,8.15 13.85,9.42598846 13.85,11 C13.85,11.3589851 14.1410149,11.65 14.5,11.65 C14.8589851,11.65 15.15,11.3589851 15.15,11 Z" id="Oval-2" fill-rule="nonzero"></path>
        </g>
    </g>
</svg>