<?xml version="1.0" encoding="UTF-8"?>
<svg width="24px" height="24px" viewBox="0 0 24 24" version="1.1" xmlns="http://www.w3.org/2000/svg" xmlns:xlink="http://www.w3.org/1999/xlink">
    <!-- Generator: Sketch 42 (36781) - http://www.bohemiancoding.com/sketch -->
    <title>index_new</title>
    <desc>Created with Sketch.</desc>
    <defs></defs>
    <g id="Symbols" stroke="none" stroke-width="1" fill="none" fill-rule="evenodd" opacity="0.699999988">
        <g id="index_new" fill="#1BA2E6">
            <g id="Page-1" transform="translate(1.000000, 1.000000)">
                <path d="M13.0431231,12.6131923 L14.3529692,15.6695 C14.6525077,16.3675769 14.5484308,17.1739615 14.0822,17.7730385 L11.4066615,21.2135 C11.0834308,21.6289615 10.4268154,21.5164231 10.2601231,21.0163462 L8.25643077,15.0061154 L13.0431231,12.6131923 Z" id="Fill-1"></path>
                <g id="Group-5" transform="translate(0.000000, 6.237254)">
                    <path d="M8.85483077,2.18773077 L5.79852308,0.877884615 C5.10044615,0.578346154 4.29406154,0.682423077 3.69498462,1.14865385 L0.254523077,3.82419231 C-0.160938462,4.14742308 -0.0484,4.80403846 0.450830769,4.97073077 L6.46190769,6.97442308 L8.85483077,2.18773077 Z" id="Fill-3"></path>
                </g>
                <g id="Group-8" transform="translate(4.230769, 0.314177)">
                    <path d="M11.5049,9.00823846 C10.5140538,9.99908462 8.90636154,9.99908462 7.91466923,9.00823846 C6.92382308,8.01654615 6.92382308,6.4097 7.91466923,5.41800769 C8.90636154,4.42631538 10.5140538,4.42631538 11.5049,5.41800769 C12.4957462,6.4097 12.4957462,8.01654615 11.5049,9.00823846 M15.6933615,1.23039231 C13.5991308,-0.863838462 7.06259231,2.08246923 3.42751538,5.71754615 C-0.207561538,9.35262308 -0.760946154,12.2989308 1.93236154,14.9913923 C4.62397692,17.6838538 7.57113077,17.1304692 11.2053615,13.4953923 C14.8404385,9.86031538 17.7875923,3.32377692 15.6933615,1.23039231" id="Fill-6"></path>
                </g>
                <path d="M5.42976923,16.0383385 C4.64115385,15.2488769 4.08015385,14.4264154 3.74507692,13.5709538 C3.20776923,13.6530308 2.70769231,13.9779538 2.43607692,14.5211846 L2.08576923,15.2209538 C2.00961538,15.3749538 2.11115385,15.5585692 2.28207692,15.5746462 L3.37276923,15.6778769 C3.53184615,15.6931077 3.63423077,15.8547231 3.58007692,16.0053385 L2.88115385,17.9531846 C2.73984615,18.3474923 3.12061538,18.7282615 3.51492308,18.5869538 L5.46276923,17.8880308 C5.61338462,17.8338769 5.775,17.9362615 5.79023077,18.0953385 L5.89346154,19.1860308 C5.90953846,19.3569538 6.09315385,19.4584923 6.24715385,19.3814923 L6.94692308,19.0320308 C7.49015385,18.7604154 7.81507692,18.2603385 7.89715385,17.7230308 C7.04169231,17.3879538 6.21923077,16.8269538 5.42976923,16.0383385" id="Fill-9"></path>
            </g>
        </g>
    </g>
</svg>