<?xml version="1.0" encoding="UTF-8"?>
<svg width="24px" height="24px" viewBox="0 0 24 24" version="1.1" xmlns="http://www.w3.org/2000/svg" xmlns:xlink="http://www.w3.org/1999/xlink">
    <!-- Generator: Sketch 42 (36781) - http://www.bohemiancoding.com/sketch -->
    <title>index_gift</title>
    <desc>Created with Sketch.</desc>
    <defs>
        <polygon id="path-1" points="7.59991729 0.2312 0.265927799 0.2312 0.265927799 5.99992 7.59991729 5.99992 7.59991729 0.2312"></polygon>
        <polygon id="path-3" points="7.73415013 0.2312 0.39984465 0.2312 0.39984465 5.99992 7.73415013 5.99992 7.73415013 0.2312"></polygon>
    </defs>
    <g id="Symbols" stroke="none" stroke-width="1" fill="none" fill-rule="evenodd" opacity="0.699999988">
        <g id="index_gift">
            <g transform="translate(3.200000, 2.000000)">
                <polygon id="Fill-1" fill="#1BA2E6" points="0 8.56888 17.6 8.56888 17.6 6.16888 0 6.16888"></polygon>
                <polygon id="Fill-2" fill="#1BA2E6" points="1.6 19.76888 8 19.76888 8 10.16808 1.6 10.16808"></polygon>
                <polygon id="Fill-3" fill="#1BA2E6" points="9.6008 19.76888 16.0008 19.76888 16.0008 10.16808 9.6008 10.16808"></polygon>
                <polygon id="Fill-4" fill="#1BA2E6" points="3.2008 6.16888 14.4 6.16888 14.4 5.36888 3.2008 5.36888"></polygon>
                <g id="Group-11" transform="translate(1.600000, 0.568880)">
                    <g id="Group-7">
                        <mask id="mask-2" fill="white">
                            <use xlink:href="#path-1"></use>
                        </mask>
                        <g id="Clip-6"></g>
                        <path d="M2.39632,0.23112 C1.52272,0.23112 0.80832,0.52712 0.46912,1.11512 C-0.19408,2.26392 0.81952,4.08952 2.73312,5.19432 C3.66512,5.73192 4.63952,5.99992 5.46992,5.99992 C6.34352,5.99992 7.05712,5.70392 7.39712,5.11512 C8.05952,3.96712 7.04592,2.14152 5.13312,1.03672 C4.20032,0.49832 3.22592,0.23112 2.39632,0.23112 M2.39632,1.43112 L2.39632,1.43112 C3.04432,1.43112 3.82272,1.66632 4.53312,2.07672 C5.26192,2.49752 5.86272,3.06792 6.18112,3.64232 C6.38432,4.00712 6.45312,4.34952 6.35792,4.51512 C6.25792,4.68872 5.90992,4.79992 5.46992,4.79992 C4.82192,4.79992 4.04352,4.56472 3.33312,4.15512 C1.82832,3.28632 1.29632,2.08152 1.50832,1.71512 C1.60832,1.54312 1.95632,1.43112 2.39632,1.43112" id="Fill-5" fill="#1BA2E6" mask="url(#mask-2)"></path>
                    </g>
                    <g id="Group-10" transform="translate(6.400000, 0.000000)">
                        <mask id="mask-4" fill="white">
                            <use xlink:href="#path-3"></use>
                        </mask>
                        <g id="Clip-9"></g>
                        <path d="M5.60416,0.23112 C4.77376,0.23112 3.79936,0.49832 2.86656,1.03672 C0.95456,2.14152 -0.05984,3.96712 0.60256,5.11512 C0.94256,5.70392 1.65696,5.99992 2.52976,5.99992 C3.36016,5.99992 4.33456,5.73192 5.26656,5.19432 C7.18016,4.08952 8.19376,2.26392 7.53136,1.11512 C7.19136,0.52712 6.47696,0.23112 5.60416,0.23112 M5.60416,1.43112 C6.04336,1.43112 6.39216,1.54312 6.49136,1.71512 C6.70336,2.08152 6.17136,3.28632 4.66656,4.15512 C3.95616,4.56472 3.17776,4.79992 2.52976,4.79992 C2.08976,4.79992 1.74176,4.68872 1.64256,4.51512 C1.54656,4.34952 1.61616,4.00712 1.81856,3.64232 C2.13696,3.06792 2.73776,2.49752 3.46656,2.07672 C4.17776,1.66632 4.95616,1.43112 5.60416,1.43112" id="Fill-8" fill="#1BA2E6" mask="url(#mask-4)"></path>
                    </g>
                </g>
            </g>
        </g>
    </g>
</svg>