<?xml version="1.0" encoding="UTF-8"?>
<svg width="24px" height="24px" viewBox="0 0 24 24" version="1.1" xmlns="http://www.w3.org/2000/svg" xmlns:xlink="http://www.w3.org/1999/xlink">
    <!-- Generator: Sketch 42 (36781) - http://www.bohemiancoding.com/sketch -->
    <title>index_top</title>
    <desc>Created with Sketch.</desc>
    <defs></defs>
    <g id="Symbols" stroke="none" stroke-width="1" fill="none" fill-rule="evenodd" opacity="0.699999988">
        <g id="index_top" fill="#1BA2E6">
            <g transform="translate(1.000000, 3.000000)">
                <path d="M3.89476248,16.2147785 C3.83278998,16.8075313 3.76214133,17.3967133 3.72000003,18.0001785 L5.04249318,18.0001785 L8.47824857,18.0001785 L11.1567,18.0001785 L13.8351515,18.0001785 L17.2709069,18.0001785 L18.5934,18.0001785 C18.5512587,17.3967133 18.4806101,16.8075313 18.4186376,16.2147785 L11.1567,16.2147785 L3.89476248,16.2147785 Z" id="Fill-1"></path>
                <path d="M20.9571,6.09117522 L15.2661,9.07595224 C14.2911,6.96937167 12.9451,5.00679351 11.1601,3.2144 C9.3751,5.00679351 8.0291,6.96937167 7.0541,9.07595224 L1.3631,6.09117522 L4.3881,14.5436797 C4.3521,14.765138 4.3321,14.9920508 4.3011,15.2146 L11.1601,15.2146 L18.0191,15.2146 C17.9881,14.9920508 17.9691,14.765138 17.9321,14.5436797 L20.9571,6.09117522 Z" id="Fill-4"></path>
                <path d="M13.4599996,2.29999995 C13.4599996,3.5704488 12.4304485,4.5999999 11.1599996,4.5999999 C9.88955076,4.5999999 8.85999966,3.5704488 8.85999966,2.29999995 C8.85999966,1.0295511 9.88955076,0 11.1599996,0 C12.4304485,0 13.4599996,1.0295511 13.4599996,2.29999995" id="Fill-6"></path>
                <path d="M21.8134,6.09780962 C21.8134,6.98694054 21.0931213,7.70721924 20.2039904,7.70721924 C19.3148595,7.70721924 18.5934,6.98694054 18.5934,6.09780962 C18.5934,5.2086787 19.3148595,4.4884 20.2039904,4.4884 C21.0931213,4.4884 21.8134,5.2086787 21.8134,6.09780962" id="Fill-8"></path>
                <path d="M3.72000003,6.11847868 C3.72000003,7.00793577 2.99972133,7.7284787 2.11059041,7.7284787 C1.22145949,7.7284787 0.5,7.00793577 0.5,6.11847868 C0.5,5.2290216 1.22145949,4.50847867 2.11059041,4.50847867 C2.99972133,4.50847867 3.72000003,5.2290216 3.72000003,6.11847868" id="Fill-10"></path>
            </g>
        </g>
    </g>
</svg>