<?xml version="1.0" encoding="UTF-8"?>
<svg width="50px" height="43px" viewBox="0 0 50 43" version="1.1" xmlns="http://www.w3.org/2000/svg" xmlns:xlink="http://www.w3.org/1999/xlink">
    <!-- Generator: Sketch 42 (36781) - http://www.bohemiancoding.com/sketch -->
    <title>icon_daka</title>
    <desc>Created with Sketch.</desc>
    <defs>
        <path d="M34.2479339,0 L32.6049587,0 C31.8381521,0 31.2165289,0.62162314 31.2165289,1.38842975 C31.2165289,2.15523636 31.8381521,2.7768595 32.6049587,2.7768595 L34.2479339,2.7768595 C35.0147405,2.7768595 35.6363636,2.15523636 35.6363636,1.38842975 C35.6363636,0.62162314 35.0147405,0 34.2479339,0 M33.1964066,5.10111405 C32.4317752,4.33650579 31.541005,3.73603306 30.5488331,3.31638017 C29.950119,3.06315372 29.329838,2.88316694 28.6942149,2.77655868 L28.6942149,1.38842975 C28.6942149,0.62162314 28.0725917,0 27.3057851,0 C26.5389785,0 25.9173554,0.62162314 25.9173554,1.38842975 L25.9173554,12.6115702 C25.9173554,13.3783769 26.5389785,14 27.3057851,14 C28.0725917,14 28.6942149,13.3783769 28.6942149,12.6115702 L28.6942149,5.61231074 C29.6463769,5.85632727 30.5196066,6.35139504 31.2328661,7.06465455 C32.2818017,8.11363636 32.8595041,9.50829091 32.8595041,10.9917355 L32.8595041,12.6115702 C32.8595041,13.3783769 33.4811273,14 34.2479339,14 C35.0147405,14 35.6363636,13.3783769 35.6363636,12.6115702 L35.6363636,10.9917355 C35.6363636,9.86773223 35.4159273,8.77658843 34.9811405,7.7486876 C34.5614876,6.7565157 33.9610149,5.86574545 33.1964066,5.10111405 M9.36169587,2.43995702 C8.59706446,1.67534876 7.70629421,1.07487603 6.71412231,0.65522314 C5.68622149,0.220459504 4.59507769,0 3.47107438,0 L1.38842975,0 C0.62162314,0 0,0.62162314 0,1.38842975 C0,2.15523636 0.62162314,2.7768595 1.38842975,2.7768595 L3.47107438,2.7768595 C4.95451901,2.7768595 6.34917355,3.35453884 7.39815537,4.40349752 C8.44711405,5.45247934 9.02479339,6.84713388 9.02479339,8.33057851 C9.02479339,9.10661818 8.72672066,9.83429421 8.1854876,10.3796231 C7.64557355,10.9235636 6.92460826,11.2231405 6.1553719,11.2231405 L2.7768595,11.2231405 L2.7768595,5.66942149 C2.7768595,4.90261488 2.15523636,4.28099174 1.38842975,4.28099174 C0.62162314,4.28099174 0,4.90261488 0,5.66942149 L0,12.6115702 C0,13.3783769 0.62162314,14 1.38842975,14 L6.1553719,14 C7.67026446,14 9.09118347,13.4089686 10.1563636,12.3357818 C11.2173554,11.2668066 11.8016529,9.84440661 11.8016529,8.33057851 C11.8016529,7.20657521 11.5811934,6.1154314 11.1464298,5.08753058 C10.7267769,4.09535868 10.1263041,3.20458843 9.36169587,2.43995702 M46.726238,4.32169587 C45.6554347,3.25086942 44.2317157,2.66115702 42.7173554,2.66115702 C41.202995,2.66115702 39.779276,3.25086942 38.7084727,4.32169587 C37.6376463,5.39249917 37.0479339,6.81621818 37.0479339,8.33057851 C37.0479339,9.84493884 37.6376463,11.2686579 38.7084727,12.3394612 C39.779276,13.4102876 41.202995,14 42.7173554,14 C43.484162,14 44.1057851,13.3783769 44.1057851,12.6115702 C44.1057851,11.8447636 43.484162,11.2231405 42.7173554,11.2231405 C41.1223967,11.2231405 39.8247934,9.92553719 39.8247934,8.33057851 C39.8247934,6.73561983 41.1223967,5.43801653 42.7173554,5.43801653 C44.312314,5.43801653 45.6099174,6.73561983 45.6099174,8.33057851 L45.6099174,12.6115702 C45.6099174,13.3783769 46.2315405,14 46.9983471,14 C47.7651537,14 48.3867769,13.3783769 48.3867769,12.6115702 L48.3867769,8.33057851 C48.3867769,6.81621818 47.7970645,5.39249917 46.726238,4.32169587 M22.8683868,4.32169587 C23.9392132,5.39249917 24.5289256,6.81621818 24.5289256,8.33057851 L24.5289256,12.6115702 C24.5289256,13.3783769 23.9073025,14 23.1404959,14 C22.3736893,14 21.7520661,13.3783769 21.7520661,12.6115702 L21.7520661,8.33057851 C21.7520661,6.73561983 20.4544628,5.43801653 18.8595041,5.43801653 C17.2645455,5.43801653 15.9669421,6.73561983 15.9669421,8.33057851 C15.9669421,9.92553719 17.2645455,11.2231405 18.8595041,11.2231405 C19.6263107,11.2231405 20.2479339,11.8447636 20.2479339,12.6115702 C20.2479339,13.3783769 19.6263107,14 18.8595041,14 C17.3451438,14 15.9214248,13.4102876 14.8506215,12.3394612 C13.779795,11.2686579 13.1900826,9.84493884 13.1900826,8.33057851 C13.1900826,6.81621818 13.779795,5.39249917 14.8506215,4.32169587 C15.9214248,3.25086942 17.3451438,2.66115702 18.8595041,2.66115702 C20.3738645,2.66115702 21.7975835,3.25086942 22.8683868,4.32169587" id="path-1"></path>
        <linearGradient x1="27.4737233%" y1="0%" x2="69.4447563%" y2="100%" id="linearGradient-3">
            <stop stop-color="#FF4C6F" offset="0%"></stop>
            <stop stop-color="#FF2E51" offset="33.4532374%"></stop>
            <stop stop-color="#FF303E" offset="61.1107033%"></stop>
            <stop stop-color="#FF5F4C" offset="100%"></stop>
        </linearGradient>
    </defs>
    <g id="Symbols" stroke="none" stroke-width="1" fill="none" fill-rule="evenodd">
        <g id="icon_daka">
            <g transform="translate(0.000000, 15.000000)">
                <mask id="mask-2" fill="white">
                    <use xlink:href="#path-1"></use>
                </mask>
                <use id="Mask" fill="#44B2D4" xlink:href="#path-1"></use>
                <rect id="Rectangle-3" fill="url(#linearGradient-3)" mask="url(#mask-2)" x="0" y="0" width="48.5" height="14"></rect>
            </g>
        </g>
    </g>
</svg>