<?xml version="1.0" encoding="UTF-8"?>
<svg width="50px" height="50px" viewBox="0 0 50 50" version="1.1" xmlns="http://www.w3.org/2000/svg" xmlns:xlink="http://www.w3.org/1999/xlink">
    <!-- Generator: Sketch 42 (36781) - http://www.bohemiancoding.com/sketch -->
    <title>icon_qq</title>
    <desc>Created with Sketch.</desc>
    <defs>
        <circle id="path-1" cx="25" cy="25" r="25"></circle>
        <mask id="mask-2" maskContentUnits="userSpaceOnUse" maskUnits="objectBoundingBox" x="0" y="0" width="50" height="50" fill="white">
            <use xlink:href="#path-1"></use>
        </mask>
    </defs>
    <g id="Symbols" stroke="none" stroke-width="1" fill="none" fill-rule="evenodd">
        <g id="icon_qq">
            <g>
                <use id="Oval" stroke="#5BB2D5" mask="url(#mask-2)" stroke-width="2" xlink:href="#path-1"></use>
                <path d="M35.9195454,31.9967499 C35.4347902,32.0950382 34.5074033,31.3615534 33.6007439,30.2148566 C33.4021614,31.4778947 32.7449002,32.6299405 31.7539936,33.5693627 C33.4375987,34.0715023 34.5649053,35.0222912 34.4331856,35.9704055 C34.2687032,37.1732671 32.1444723,37.9141068 29.6892707,37.6259282 C27.9688911,37.4233339 26.5460509,36.7680786 25.9041682,35.9804349 C25.6387229,35.9998251 25.3719404,36.0118605 25.0998088,36.0118605 C24.9420126,36.0118605 24.7882282,36.0004938 24.6324379,35.9938075 C24.0346846,36.8235747 22.5229169,37.5109242 20.6641313,37.6968028 C18.1313688,37.9488755 15.9242282,37.1766103 15.7316633,35.9704055 C15.575873,35.0162735 16.7346052,34.0775199 18.4777181,33.6014569 C17.4239605,32.6145621 16.7372797,31.3869613 16.5721286,30.0423506 C15.552471,31.184367 14.5140919,31.8015106 14.1162583,31.6056026 C13.3399813,31.2238161 13.1520969,28.8802753 14.4117919,26.5614737 C14.8684647,25.7216771 15.4254317,24.9935413 15.99644,24.4252076 C15.823934,24.118976 15.7162849,23.7318405 15.7162849,23.3039186 C15.7162849,22.5617417 16.0278655,21.928551 16.4678226,21.6657803 C16.3976167,21.2518996 16.3494755,20.830664 16.3494755,20.3987304 C16.3494755,15.9002019 20.3271429,12.2555112 25.2308599,12.2555112 C30.13792,12.2555112 34.1142501,15.9002019 34.1142501,20.3987304 C34.1142501,20.7851973 34.0741324,21.1623035 34.0172991,21.5353978 C34.6765662,21.5434214 35.2101312,22.331065 35.2101312,23.3039186 C35.2101312,24.0053093 34.9306448,24.6064058 34.5274622,24.8925785 C35.0215782,25.4950122 35.4882805,26.2338461 35.8526827,27.0555898 C36.9004226,29.4165149 36.4912223,31.8810773 35.9195454,31.9967499" id="Fill-1" fill="#5BB2D5"></path>
            </g>
        </g>
    </g>
</svg>