<?xml version="1.0" encoding="UTF-8"?>
<svg width="50px" height="50px" viewBox="0 0 50 50" version="1.1" xmlns="http://www.w3.org/2000/svg" xmlns:xlink="http://www.w3.org/1999/xlink">
    <!-- Generator: Sketch 42 (36781) - http://www.bohemiancoding.com/sketch -->
    <title>icon_wb</title>
    <desc>Created with Sketch.</desc>
    <defs>
        <circle id="path-1" cx="25" cy="25" r="25"></circle>
        <mask id="mask-2" maskContentUnits="userSpaceOnUse" maskUnits="objectBoundingBox" x="0" y="0" width="50" height="50" fill="white">
            <use xlink:href="#path-1"></use>
        </mask>
    </defs>
    <g id="Symbols" stroke="none" stroke-width="1" fill="none" fill-rule="evenodd">
        <g id="icon_wb">
            <g>
                <use id="Oval" stroke="#EE686A" mask="url(#mask-2)" stroke-width="2" xlink:href="#path-1"></use>
                <path d="M34.8700154,21.9442695 C34.8700154,21.9630194 34.8593905,21.9792694 34.8587655,21.9973943 C34.8562655,22.0211442 34.8568905,22.0455191 34.8543905,22.068644 L34.8450155,22.067394 C34.7812658,22.5211421 34.4087674,22.8761406 33.9375194,22.8761406 C33.4231466,22.8761406 33.0056483,22.4592673 33.0056483,21.9442695 C33.0056483,21.9055197 33.0231483,21.8730198 33.0275232,21.83552 L33.0056483,21.83302 C33.0193983,21.7230205 33.0268982,21.6105209 33.0268982,21.4967714 C33.0268982,20.0542775 31.8531532,18.8805325 30.4100344,18.8805325 C29.8956615,18.8805325 29.4781633,18.4630343 29.4781633,17.9480365 C29.4781633,17.4330387 29.8956615,17.0161654 30.4100344,17.0161654 C32.8806489,17.0161654 34.8906403,19.0261569 34.8906403,21.4967714 C34.8906403,21.6392708 34.8775154,21.7773952 34.8637654,21.9167696 C34.8637654,21.9261446 34.8700154,21.9342696 34.8700154,21.9442695 M38.3650006,22.9742651 L38.3637506,22.9742651 C38.2400011,23.4567631 37.8056279,23.8148866 37.2843802,23.8148866 C36.6662578,23.8148866 36.1656349,23.3136387 36.1656349,22.6967663 C36.1656349,22.6530165 36.1737599,22.6111417 36.1781349,22.5692669 L36.1650099,22.5667669 C36.2300096,22.2167684 36.2631345,21.8561449 36.2631345,21.4967714 C36.2631345,18.2692851 33.6375207,15.6430463 30.4100344,15.6430463 C29.791912,15.6430463 29.2919141,15.1424234 29.2919141,14.524926 C29.2919141,13.9074287 29.791912,13.4061808 30.4100344,13.4061808 C34.8712654,13.4061808 38.5,17.0355404 38.5,21.4967714 C38.5,21.9023947 38.4618752,22.308018 38.4012504,22.7073913 C38.4006254,22.7980159 38.3868755,22.8836405 38.3656256,22.9673902 C38.3650006,22.9698902 38.3650006,22.9723902 38.3650006,22.9742651 M20.2182026,32.3436004 C19.3744562,32.4423499 18.6938341,31.956102 18.6938341,31.249855 C18.6938341,30.546733 19.2988315,29.8104861 20.142578,29.7223615 C21.1113238,29.6298619 21.7431962,30.1886095 21.7431962,30.8942315 C21.7431962,31.5973535 21.0581991,32.2473508 20.2182026,32.3436004 M21.3581978,26.4005006 C16.837592,26.9304983 17.3600898,31.1636054 17.3600898,31.1636054 C17.3600898,31.1636054 17.314465,32.5048497 18.5725846,33.1873468 C21.2169484,34.6198407 23.9400618,33.7523444 25.316306,31.9754769 C26.6931751,30.1992345 25.8850536,25.8761278 21.3581978,26.4005006 M22.253819,35.0829637 C17.7607131,35.2935878 14.1276035,33.0398474 14.1276035,30.0417351 C14.1276035,27.0386229 17.7607131,24.6305081 22.253819,24.423634 C26.7525499,24.2161349 30.3912844,26.069252 30.3912844,29.0648643 C30.3912844,32.0636015 26.7525499,34.8785896 22.253819,35.0829637 M31.8237784,25.3398801 C30.7562829,25.133006 31.2750307,24.5592584 31.2750307,24.5592584 C31.2750307,24.5592584 32.3200262,22.8361407 31.0687816,21.585521 C29.5181631,20.0342776 25.7494292,21.7817702 25.7494292,21.7817702 C24.3100603,22.2298933 24.6919336,21.5786461 24.8956828,20.4717758 C24.8956828,19.1680313 24.4488097,16.9605407 20.615076,18.2649101 C16.7857172,19.5755296 13.4976062,24.1667601 13.4976062,24.1667601 C11.2107409,27.2192471 11.5132396,29.5767371 11.5132396,29.5767371 C12.0844872,34.782965 17.6169637,36.2129589 21.9188204,36.5523325 C26.4469262,36.906081 32.5562752,34.9910891 34.4087674,31.0561058 C36.2612595,27.1136226 32.8950238,25.5536292 31.8237784,25.3398801" id="Fill-1" fill="#EE686A"></path>
            </g>
        </g>
    </g>
</svg>