<?xml version="1.0" encoding="UTF-8"?>
<svg width="50px" height="50px" viewBox="0 0 50 50" version="1.1" xmlns="http://www.w3.org/2000/svg" xmlns:xlink="http://www.w3.org/1999/xlink">
    <!-- Generator: Sketch 42 (36781) - http://www.bohemiancoding.com/sketch -->
    <title>icon_wx</title>
    <desc>Created with Sketch.</desc>
    <defs>
        <circle id="path-1" cx="25" cy="25" r="25"></circle>
        <mask id="mask-2" maskContentUnits="userSpaceOnUse" maskUnits="objectBoundingBox" x="0" y="0" width="50" height="50" fill="white">
            <use xlink:href="#path-1"></use>
        </mask>
    </defs>
    <g id="Symbols" stroke="none" stroke-width="1" fill="none" fill-rule="evenodd">
        <g id="icon_wx">
            <path d="M26.2170435,25.7174639 C26.2170435,25.1742529 26.6724463,24.7335757 27.2342007,24.7335757 C27.7965004,24.7335757 28.2519032,25.1742529 28.2519032,25.7174639 C28.2519032,26.2623111 27.7965004,26.7035337 27.2342007,26.7035337 C26.6724463,26.7035337 26.2170435,26.2623111 26.2170435,25.7174639 M31.2591978,25.7174639 C31.2591978,25.1742529 31.7140552,24.7335757 32.2758096,24.7335757 C32.8386547,24.7335757 33.2940575,25.1742529 33.2940575,25.7174639 C33.2940575,26.2623111 32.8386547,26.7035337 32.2758096,26.7035337 C31.7140552,26.7035337 31.2591978,26.2623111 31.2591978,25.7174639 M22.5100102,27.8046813 C22.5100102,31.1512101 25.7545506,33.8639927 29.7560959,33.8639927 C30.5572776,33.8639927 31.3279173,33.7549142 32.0478355,33.5542097 C32.0898307,33.5427565 32.1710942,33.5182138 32.1710942,33.5182138 L34.7895239,34.8533348 L34.0903306,32.6597659 C34.0903306,32.6597659 34.1350528,32.6319509 34.1568685,32.6183161 C35.8846722,31.5111692 37,29.7670037 37,27.8046813 C37,24.4581525 33.7565504,21.7459152 29.7560959,21.7459152 C25.7545506,21.7459152 22.5100102,24.4581525 22.5100102,27.8046813 M18.5913646,21.0150892 C17.9265311,21.0150892 17.3876832,20.4926031 17.3876832,19.8490399 C17.3876832,19.2043859 17.9265311,18.6829906 18.5913646,18.6829906 C19.2572889,18.6829906 19.7966822,19.2043859 19.7966822,19.8490399 C19.7966822,20.4926031 19.2572889,21.0150892 18.5913646,21.0150892 M24.5595955,18.6829906 C25.2249744,18.6829906 25.7632769,19.2043859 25.7632769,19.8490399 C25.7632769,20.4926031 25.2249744,21.0150892 24.5595955,21.0150892 C23.8936712,21.0150892 23.3559141,20.4926031 23.3559141,19.8490399 C23.3559141,19.2043859 23.8936712,18.6829906 24.5595955,18.6829906 M29.6906488,21.2141575 C29.8128167,21.2141575 29.9322577,21.2163391 30.0516987,21.221793 C29.4195887,17.7809113 25.8652653,15.1466652 21.5752074,15.1466652 C16.8390183,15.1466652 13,18.3579366 13,22.3191228 C13,24.6414044 14.31985,26.706806 16.3661629,28.016839 C16.3923418,28.0337462 16.4446995,28.0664697 16.4446995,28.0664697 L15.6162482,30.661993 L18.7162595,29.0830815 C18.7162595,29.0830815 18.8133394,29.1114419 18.8618793,29.1250767 C19.7143279,29.3623225 20.6273151,29.4910351 21.5752074,29.4910351 C21.7693671,29.4910351 21.9607999,29.4833996 22.1516873,29.4730372 C21.9760709,28.92819 21.8795364,28.3538916 21.8795364,27.7621407 C21.8795364,24.1456425 25.3776844,21.2141575 29.6906488,21.2141575" id="Fill-1" fill="#76C678"></path>
            <use id="Oval" stroke="#69C87A" mask="url(#mask-2)" stroke-width="2" xlink:href="#path-1"></use>
        </g>
    </g>
</svg>